<mxfile host="app.diagrams.net" modified="2023-10-26T14:16:06.714Z" agent="Mozilla/5.0 (X11; Linux x86_64) AppleWebKit/537.36 (KHTML, like Gecko) Chrome/118.0.0.0 Safari/537.36" version="22.0.8" etag="9XPgq1lsPyUJ7BkOS7IX" type="github">
  <diagram name="Page-1" id="KOpMFFM7tqz4W2AKMRL1">
    <mxGraphModel>
      <root>
        <mxCell id="0" />
        <mxCell id="1" parent="0" />
      </root>
    </mxGraphModel>
  </diagram>
</mxfile>
